<?xml version="1.0" encoding="iso-8859-1"?>
<!-- Uploaded to: SVG Repo, www.svgrepo.com, Generator: SVG Repo Mixer Tools -->
<svg height="800px" width="800px" version="1.1" id="Layer_1" xmlns="http://www.w3.org/2000/svg" xmlns:xlink="http://www.w3.org/1999/xlink" 
	 viewBox="0 0 512 512" xml:space="preserve">

<g>
	<path style="fill:#F4F6F9;" d="M411.539,146.416H201.9c-1.885,0-3.7,0.756-5.026,2.099L95.436,251.029
		c-2.727,2.755-2.727,7.187,0,9.942l101.437,102.514c1.326,1.343,3.141,2.099,5.026,2.099h209.641c3.908,0,7.07-3.166,7.07-7.07
		V153.486C418.609,149.582,415.447,146.416,411.539,146.416z M404.469,351.444H204.847L110.412,256l94.436-95.444h199.621V351.444z"
		/>
	<path style="fill:#F4F6F9;" d="M258.073,306.949c1.381,1.381,3.189,2.071,4.998,2.071c1.809,0,3.618-0.69,4.998-2.071
		l40.955-40.955l40.958,40.958c1.381,1.381,3.189,2.071,4.998,2.071s3.618-0.69,4.998-2.071c2.762-2.762,2.762-7.235,0-9.997
		l-40.958-40.958l40.958-40.958c2.762-2.762,2.762-7.235,0-9.997c-2.762-2.762-7.235-2.762-9.997,0l-40.958,40.958l-40.955-40.955
		c-2.762-2.762-7.235-2.762-9.997,0c-2.762,2.762-2.762,7.235,0,9.997l40.955,40.955l-40.955,40.955
		C255.311,299.714,255.311,304.188,258.073,306.949z"/>
</g>
</svg>