<svg viewBox="0 -94.29 478.321 478.321" xmlns="http://www.w3.org/2000/svg" fill="#000000"><g id="SVGRepo_bgCarrier" stroke-width="0"></g><g id="SVGRepo_tracerCarrier" stroke-linecap="round" stroke-linejoin="round"></g><g id="SVGRepo_iconCarrier"><defs><style>.a{fill:#000000;}.b{fill:#c0c0c0;}.c{fill:#000000;}.d{fill:#000000;}.e{fill:#000000;}.f{fill:#000000;}</style></defs><path class="a" d="M239.635,199.486a4.5,4.5,0,0,1,.4-2.754,4.633,4.633,0,0,1,3.443-2.489,109.34,109.34,0,0,1,12.752-1.653c8.005-.716,12.037-1.069,21.956-2.08l1.252-.127-.624-1.623c-.417-1.083-2.8-3.281-5.626-5.665a36.147,36.147,0,0,1-4.358-4.307,3.448,3.448,0,0,1,.317-4.083c1.27-1.6,3.469-1.421,5.083-.778,7.112,2.833,16.667,8.222,22.7,10.619,3.379,1.342,6.608,5.934,6.391,10.311l5.169,7.076a54.478,54.478,0,0,0-16.417,18.818l-6.509-2.768c-2.834-1.167-11.334-1.085-13.611-1.138-4.288-.1-8.778-.213-13.445-.266l-.482-1.925c-3.181.03-6.176.024-7.031-.061a3.084,3.084,0,0,1-2.845-2.466,3.282,3.282,0,0,1,2.161-3.237l.372-.128-2.8.272c-3.9.377-6.363-1.265-6.187-3.81a3.649,3.649,0,0,1,2.645-3.025l-1.1-.121C240.894,201.819,239.9,200.724,239.635,199.486Z"></path><path class="a" d="M393.79,102.278l.1-.119a15.706,15.706,0,0,0,3.56-8.985c.374-3.329-.944-8.14-3.541-10.207-.869-.691-2.738-1.756-6.134-.869a7.483,7.483,0,0,0-4.586,3.228c-1.352-2.512-3.272-7.135-6.881-11.593-4.431-3.708-11.056-6.372-18.376-6.946-.364,1.8-.666,3.637-1.019,5.579a34.593,34.593,0,0,1-1.43,6.164,13.031,13.031,0,0,1-2.06,3.371c-1.488,1.892-3.141,3.644-3.507,6.065-.227,1.5.811,3.907.957,5.421.111,1.157.158,1.532.269,2.688l.87,4.945c1.031-.034,3.343-.014,4.958-.013a.989.989,0,0,1,.922,1.085c-.1,2.332-.928,3.257-1.717,4.917a12.309,12.309,0,0,1-2.115,2.832l-.434.364c.234,1.327.77,4.38.77,4.38a11.793,11.793,0,0,0,2.529,3.649,12.533,12.533,0,0,0,5.169,3.58,34.275,34.275,0,0,0,17.529,2.28,44.021,44.021,0,0,1,4.227,8.516l1.232,3.373a41.3,41.3,0,0,1,11.08-5.683,72.586,72.586,0,0,1,18.935-3.726l-1.039-3.258c-11-1.167-19.91-11.873-23.667-17.217l-.7-1A10.8,10.8,0,0,0,393.79,102.278Z"></path><path class="b" d="M351.958,103.022c1.237-.043,2.477-.022,3.714-.018l.93,0h.25q.339.009-.193-.042a1.108,1.108,0,0,1-.508-.3c-.185-.27-.222-.317-.111-.138a.947.947,0,0,1-.146-.556,2.341,2.341,0,0,1-.008.29,2.423,2.423,0,0,0-.04.465c.042-.288.045-.322.011-.1-.015.09-.031.179-.05.268-.034.167-.075.334-.122.5s-.094.307-.149.458c-.027.072-.055.145-.083.217q.194-.452.067-.163c-.114.238-.227.475-.349.709-.272.52-.533,1.047-.807,1.565a8.08,8.08,0,0,1-.47.765q-.138.2-.283.4c-.081.111-.356.389.019-.016a13.541,13.541,0,0,1-.981,1.107,2.011,2.011,0,0,0,0,2.828,2.05,2.05,0,0,0,2.829,0,11.838,11.838,0,0,0,2.033-2.548,22.119,22.119,0,0,0,1.439-2.74,9.78,9.78,0,0,0,.686-1.888,6.39,6.39,0,0,0,.172-2.765,3.023,3.023,0,0,0-2.034-2.189,7.422,7.422,0,0,0-2.1-.121c-1.237,0-2.477-.025-3.714.018a2,2,0,0,0,0,4Z"></path><path class="c" d="M383.558,38.453c-12.68,3.826-18.9,10.62-23.635,21.267A41.276,41.276,0,0,0,357.93,66.8c7.323.565,13.949,3.228,18.381,6.937,3.609,4.458,5.529,9.082,6.882,11.594a7.476,7.476,0,0,1,4.585-3.229c3.4-.887,5.265.178,6.134.869,2.6,2.067,3.915,6.878,3.541,10.207a15.706,15.706,0,0,1-3.56,8.985,10.753,10.753,0,0,1-4.2,2.942l.7,1c4.254,6.05,15.111,18.973,28.13,17.145,2.448-3.645,6.233-7.2,8.7-9.65,6.191-6.13,13.889-17.111,14.793-31.071.568-8.775-2.561-17.849-6.395-24.253C425.76,41.8,413.759,38.363,406.318,37A51.369,51.369,0,0,0,383.6,38.441Z"></path><path class="b" d="M352.672,115.594a17.259,17.259,0,0,0,4.542,5.686,21.607,21.607,0,0,0,7.476,3.561,37.137,37.137,0,0,0,18.591.631c2.516-.538,1.452-4.395-1.063-3.857a32.8,32.8,0,0,1-16.119-.528,18.59,18.59,0,0,1-6.057-2.635,13.74,13.74,0,0,1-3.916-4.877c-1.153-2.3-4.6-.278-3.454,2.019Z"></path><path class="b" d="M358,59.188A58.113,58.113,0,0,0,355.314,70c-.585,3.313-.842,6.987-2.814,9.818-1.635,2.346-3.837,4.353-4.447,7.268a9.692,9.692,0,0,0,.371,4.484,28.629,28.629,0,0,1,.721,4.5,2.056,2.056,0,0,0,2,2,2.014,2.014,0,0,0,2-2,32.6,32.6,0,0,0-.583-4.494c-.3-1.22-.862-2.506-.573-3.768.6-2.64,3.2-4.588,4.532-6.855,1.771-3.017,2.093-6.738,2.69-10.119a56.889,56.889,0,0,1,2.641-10.587,2.016,2.016,0,0,0-1.4-2.461,2.045,2.045,0,0,0-2.46,1.4Z"></path><path class="b" d="M378.431,125.887a36.862,36.862,0,0,1,2.107,3.978q.238.51.467,1.025c.07.156.138.313.207.47.036.084.073.169.109.254s.164.385.026.059.057.139.1.238q.091.222.181.446c.1.261.2.522.3.785a2,2,0,1,0,3.857-1.064,44.5,44.5,0,0,0-3.9-8.21,2,2,0,0,0-3.454,2.019Z"></path><path class="b" d="M388.667,107.108c6.023,8.535,14.544,16.959,25.394,18.208a2.012,2.012,0,0,0,2-2,2.047,2.047,0,0,0-2-2c-9.253-1.065-16.871-9.044-21.94-16.227a2.054,2.054,0,0,0-2.736-.717,2.017,2.017,0,0,0-.718,2.736Z"></path><path class="b" d="M385.209,85.874c1.458-1.892,5.06-2.759,6.98-1.66.054.031.6.39.387.23-.169-.124.468.428.561.527a6.733,6.733,0,0,1,1.028,1.493,11.852,11.852,0,0,1,1.275,4.124c.689,5.655-2.452,12.15-8.418,13.153a2.016,2.016,0,0,0-1.4,2.46,2.047,2.047,0,0,0,2.461,1.4c6.959-1.17,10.595-7.682,11.338-14.168.577-5.042-1.729-12.338-7.369-13.475a10.56,10.56,0,0,0-10.3,3.9,2.011,2.011,0,0,0,.718,2.736,2.051,2.051,0,0,0,2.736-.717Z"></path><path class="b" d="M356.53,80.195c-.681,1.732-.864,5.868,1.98,6.532,3.818.388,4.611-4.55,3.605-7.022C361.291,77.681,358.294,76.55,356.53,80.195Z"></path><path class="b" d="M361.65,60.729a39.212,39.212,0,0,1,8.312-12.585A33.945,33.945,0,0,1,383.373,40.6c10-3.169,21.347-3.239,31.126.785,10.1,4.154,17.831,13.286,22.1,23.148a39.383,39.383,0,0,1,3.277,19.717A44.161,44.161,0,0,1,433.8,101.91c-2.94,4.97-6.725,8.953-10.763,13.018-4.631,4.662-9.684,10.118-8.887,17.187a2.06,2.06,0,0,0,2,2,2.013,2.013,0,0,0,2-2,11.321,11.321,0,0,1,2.383-8.272,51.343,51.343,0,0,1,6.077-6.83,66.769,66.769,0,0,0,10.083-12.157A48.811,48.811,0,0,0,443.522,86.9a42.2,42.2,0,0,0-2.183-21.188c-4.125-11.271-12.368-21.908-23.371-27.132-9.851-4.677-21.281-5.267-31.831-2.875a41.3,41.3,0,0,0-17.628,8.37C363.882,48,360.65,53.226,358.2,58.71a2.062,2.062,0,0,0,.717,2.737,2.015,2.015,0,0,0,2.736-.718Z"></path><path class="b" d="M374.9,75.147c.11.137.221.275.33.414a.821.821,0,0,1,.071.093q.279.37.55.747.525.731,1.016,1.484c.626.959,1.211,1.943,1.766,2.944.877,1.584,1.66,3.216,2.482,4.83a2.013,2.013,0,0,0,2.736.717,2.047,2.047,0,0,0,.717-2.736c-.848-1.666-1.655-3.35-2.567-4.983a45.366,45.366,0,0,0-4.273-6.339,2.006,2.006,0,0,0-2.828,0,2.059,2.059,0,0,0,0,2.829Z"></path><path class="b" d="M359.7,68.967c5.425.782,11.051,2.745,15.2,6.18a2.056,2.056,0,0,0,2.828,0,2.016,2.016,0,0,0,0-2.829,34.182,34.182,0,0,0-16.962-7.208,2.066,2.066,0,0,0-2.46,1.4,2.014,2.014,0,0,0,1.4,2.46Z"></path><path class="d" d="M403.173,128.315c-2.364.556-4.7,1.225-7.008,1.985-8.969,2.958-19.193,10.176-22.047,20.012q-1.45.619-2.895,1.271c-8.374,3.773-15.711,8.391-21.174,15.969-8.721,12.1-8.567,27.425-11.711,41.478-.749,3.35-1.078,7.414-3.644,11.232-7.439-6.6-12.115-12.03-19.232-19.409a3.441,3.441,0,0,0-4.063-.658c-9.829,5.1-18.581,17.616-20.045,22.324a.994.994,0,0,0,.094.824c6.008,9.793,15.287,22.763,20.446,28.306,9.395,10.094,22.445,18.278,36.167,16,.258-.043.516-.1.772-.154,2.083,6.9,4.48,11.081,10.978,14.321,3.927,1.958,9.972,4.444,15.972,4.889a147.422,147.422,0,0,0,21.444-.222c5.223-7.445,19.061-27.825,25.223-36.334,7-9.666,24.777-38.111,27.124-42.025.563-4.575,1.219-9.737,1.32-13.891.25-10.25.787-18.546-2.021-28s-9.923-21.615-21.1-24.751c-1.224-2.691-3.744-10.444-5.366-12.915a3.514,3.514,0,0,0-3.651-2.075A64.875,64.875,0,0,0,403.173,128.315Z"></path><path class="a" d="M74.735,201.033c-.654-2.858-.048-5.843.668-8.686.7-2.779,1.592-5.673,3.68-7.636a13.184,13.184,0,0,1,6.394-3.228,113.849,113.849,0,0,1,15.193-1.34,18.031,18.031,0,0,1,13.112,7.523,9.125,9.125,0,0,1,1.933,5.66s-2.168,2.476-6.779,7.7a76.254,76.254,0,0,0-6.709,8.959c-.458,1.125-1.96,1.541-3.4,1.033-1.22-.429-2.557-2.026-3.8-2.367-2.292-.625-5.833-.041-8.22-.531-3.166-.65-6.8-1.449-8.179-4.374Z"></path><path class="a" d="M64.342,41.244c3.442-6.8,11.744-13.306,31-12.984,29.107.488,25.95,22.271,25.95,22.271-.325,4.7-.446,9.384-.651,13.7-.356,7.488-2.207,14.356-7.155,18.945a25.63,25.63,0,0,1-7.992,5.18c.029.268.046.414.046.414a6.34,6.34,0,0,0,.869,2.418,8.235,8.235,0,0,0,4.492,2.862c-4.384,6.475-10.172,9.252-18.7,9.335a40.323,40.323,0,0,1-24.55-8.095A22.014,22.014,0,0,0,70.8,93.341a5.91,5.91,0,0,0,2.143-2.824,46.754,46.754,0,0,0,1.7-7.909,41.022,41.022,0,0,1-5.806-6.236s-1.472-1.99-2.114-3.14l-.26-.635a9.068,9.068,0,0,1-4.61-.742,12.4,12.4,0,0,1-5.014-5.21c-1.293-2.245-2.049-6.109-1.16-8.445a4.273,4.273,0,0,1,3.39-2.661,4.73,4.73,0,0,1,3.457.539A23.683,23.683,0,0,1,64.342,41.244Z"></path><path class="a" d="M97.2,180.231c.333-.021.652-.039.954-.055L142.7,171.67c.113-15.35.292-31.34-1.98-45.921-2.82-18.1-11.083-26.726-29.773-31.766-4.387,6.521-10.188,9.321-18.75,9.4A40.253,40.253,0,0,1,67.32,95.036c-13.022,5.59-22.58,10.355-29.775,22.871-4.173,7.261-6.711,19.659-8.928,27.962s-2.783,17.346-.534,25.547a34.58,34.58,0,0,0,7.168,13.563c6.755,7.728,21.1,13.456,31.4,15.059,0,0,8.085.495,8.085.995-.654-2.858-.048-5.843.668-8.686.7-2.779,1.592-5.673,3.68-7.636a13.184,13.184,0,0,1,6.394-3.228C87.92,181.041,93.429,180.468,97.2,180.231Z"></path><path class="e" d="M200.005,88.705a181.715,181.715,0,0,1-23.95-1.78c-9.767-3.133-8.805-16.412-7.3-22.025,1.295-4.847,1.488-17.172.188-24.122-.19-1.4-.364-2.647-.452-3.592a41.682,41.682,0,0,1,.869-10.415c1.223-5.522,2.863-8.694,6.877-13.4C185,3.616,194.764,1.835,201.372,1.992c9.8.232,16.914,2.347,23.186,9.136,4.628,3.873,7.254,9.734,8.476,15.62a51.229,51.229,0,0,1,.4,15.636c-.443,4.563-.664,9.134-.962,13.332a35.426,35.426,0,0,1-1.95,9.805c.2,2.981.934,6.048.642,9.084a9.124,9.124,0,0,1-2.25,5.456s-.6,8.033-6.936,8.422C215.9,88.856,200.005,88.705,200.005,88.705Z"></path><path class="a" d="M178.1,46.78c-.646-.131-1.547-.906-3.234-.583a4.015,4.015,0,0,0-3.241,2.424c-.886,2.174-.261,5.817.9,7.954a11.638,11.638,0,0,0,4.592,5,8.464,8.464,0,0,0,4.609.766c-1.332-.889,1.848,3.629,1.848,3.629a38.247,38.247,0,0,0,5.59,6.229,47.4,47.4,0,0,1-1.621,8.336,5.839,5.839,0,0,1-2.091,2.859,29.991,29.991,0,0,1-3.763,2.265,41.091,41.091,0,0,0,25.977,6.219c5.682-.469,10.989-2.289,14.647-6.908a16.158,16.158,0,0,1-5.626-3.222,2.284,2.284,0,0,1-.609-.706,3.034,3.034,0,0,1-.239-.918s-.093-.624-.215-1.44a23.188,23.188,0,0,0,9.713-5.341c4.747-4.2,6.636-10.606,7.135-17.628.229-3.223.412-6.667.686-10.158l-.576-.077a27.4,27.4,0,0,0-2.136-11.369c-1.857-3.806-3.311-6.193-5.17-7.385a40.741,40.741,0,0,1-11.8,8.224,52.212,52.212,0,0,1-7.083,2.743c-1.5.459-5.609,1.375-6.7-.545l-.741-1.3a104.215,104.215,0,0,1-11.718,8.132,7.547,7.547,0,0,0-2.555,3.222Z"></path><path class="f" d="M160.224,110.322c-.275,1.049-.536,2.236-.781,3.522a142.677,142.677,0,0,0-2.189,24.712c.12,8,.4,20.959.98,30.149,33.033-6.307,66.733-12.738,96.24-18.369-1.35-7.11-3.46-17.04-4.93-25.93-1.63-9.83-4.13-22.47-9.87-29.78-3.26-4.15-6.756-6.355-11.5-8.4-.88-.38-3.613-1.285-3.613-1.285l-1.785-.59c-3.668,5.081-9.186,7.039-15.111,7.528a41.08,41.08,0,0,1-26.119-6.31c-11.157,7.472-17.032,11.894-20.782,22.927C160.579,109.042,160.4,109.654,160.224,110.322Z"></path><path class="c" d="M67.58,13.484a32.975,32.975,0,0,1,18.6-5.668c10.776,0,18.554,2.208,25.561,9.84,4.993,4.236,7.352,9.619,8.769,15.724a54.522,54.522,0,0,1,.549,18.706l-.166-2.368c-.419-5.5-4.983-11.165-8.149-12.352,0,0-3.467-.977-7.01-1.6l-1.253.421c-4.733,1.588-11.46,5.04-15.225,6.739a1.228,1.228,0,0,1-1.744-1.276,5.344,5.344,0,0,0-.065-2.172c-.206-.914-.967-1.326-1.584-1.064-4.858,2.063-10.314,6.424-14.544,10.232A4.6,4.6,0,0,0,69.975,50.8,48.218,48.218,0,0,0,68.8,55.716l-6.273.362a4.73,4.73,0,0,0-3.457-.539,4.273,4.273,0,0,0-3.39,2.661,5.429,5.429,0,0,0-.3,1.2c-2.071-3.582-2.961-10.132-3.331-13.292A44.57,44.57,0,0,1,52.724,35c1.16-5.91,2.83-9.33,6.99-14.43A39.081,39.081,0,0,1,67.58,13.484Z"></path><path class="b" d="M2.506,200.494q20.165-3.853,40.33-7.71c2.526-.481,1.456-4.337-1.064-3.857q-20.166,3.846-40.33,7.71c-2.525.483-1.456,4.339,1.064,3.857Z"></path><path class="b" d="M255.092,268.7c13.14-3.3,26.135-7.272,39.182-10.919,2.162-.605,4.32-1.228,6.492-1.8,2.488-.65,1.433-4.509-1.064-3.857-12.994,3.394-25.877,7.255-38.818,10.846-2.281.633-4.559,1.292-6.855,1.869-2.5.627-1.438,4.485,1.063,3.857Z"></path><path class="b" d="M345.259,151q-10.413-2.914-20.84-5.781-6.154-1.7-12.309-3.4l-5.651-1.557-2.577-.711a6.085,6.085,0,0,0-3.073-.08l-42.05,8.018-49.914,9.524q-26.451,5.047-52.9,10.1L104.14,177,98.1,178.157c-2.525.483-1.456,4.339,1.064,3.857l41.1-7.849q21.547-4.114,43.094-8.227,21.141-4.036,42.282-8.07l39.49-7.534,33.933-6.47,3.819-.728h-1.063c14.127,3.893,28.259,7.769,42.371,11.72,2.483.695,3.542-3.164,1.063-3.858Z"></path><path class="b" d="M116,214.664c5.826,2.955,11.693,5.829,17.552,8.72q5.044,2.489,10.086,4.987a14.888,14.888,0,0,0,2.46,1.188,5.6,5.6,0,0,0,2.591-.358l5.085-1.195q21.043-4.954,42.073-9.965,11.06-2.62,22.121-5.226a2.026,2.026,0,0,0,1.468-1.928,2.1,2.1,0,0,0-1.468-1.929q-16.821-6.988-33.658-13.942-8.943-3.714-17.873-7.463-3.831-1.611-7.657-3.24-1.75-.745-3.5-1.5c-1.078-.463-2.655-1.492-3.831-1.492a19.169,19.169,0,0,0-3.455.643l-3.6.7q-3.381.663-6.76,1.331-6.553,1.295-13.106,2.593c-2.523.5-1.455,4.355,1.063,3.857q13.193-2.609,26.386-5.2l-1.541-.2c17.591,7.639,35.354,14.888,53.076,22.219q6.694,2.769,13.388,5.545v-3.857c-18.558,4.36-37.1,8.79-55.651,13.175q-7.576,1.791-15.156,3.569l1.541.2c-9.866-4.912-19.791-9.709-29.62-14.694-2.291-1.162-4.318,2.288-2.019,3.454Z"></path><path class="b" d="M238.259,185.054c-11.995-4.9-24.289-9.05-36.415-13.6v3.857c16.885-3.359,33.748-6.831,50.624-10.235q6.143-1.239,12.291-2.456H263.7c9.723,3.172,19.486,6.226,29.243,9.293q15.97,5.021,31.955,9.994,4.853,1.509,9.709,3.007v-3.858c-6.967,1.784-13.963,3.454-20.97,5.072-2.507.579-1.446,4.437,1.064,3.857,7.007-1.618,14-3.288,20.97-5.071a2.018,2.018,0,0,0,0-3.858c-12.922-3.959-25.812-8.022-38.706-12.071q-12.012-3.771-24.01-7.585-2.364-.754-4.725-1.514c-1.343-.433-3.12-1.353-4.53-1.123-5.848.95-11.659,2.325-17.464,3.5-15.149,3.069-30.292,6.173-45.452,9.189-2.113.42-1.673,3.229,0,3.857,12.127,4.552,24.421,8.707,36.416,13.6a2.013,2.013,0,0,0,2.46-1.4,2.05,2.05,0,0,0-1.4-2.46Z"></path><path class="b" d="M204.5,181.021c-5.363,2.107-10.757,4.138-16.105,6.285a2.019,2.019,0,0,0,0,3.857c13.551,4.031,27,8.392,40.494,12.622,2.462.772,3.515-3.088,1.064-3.857-13.491-4.23-26.943-8.591-40.495-12.622v3.857c5.349-2.146,10.742-4.178,16.106-6.285a2.061,2.061,0,0,0,1.4-2.461,2.013,2.013,0,0,0-2.46-1.4Z"></path><path class="b" d="M187.08,72.91a47.811,47.811,0,0,1-1.034,5.467,6.517,6.517,0,0,1-.931,2.569,6.044,6.044,0,0,1-.88.88c.313-.266-.165.109-.262.175a57.111,57.111,0,0,1-8.388,4.422,2.015,2.015,0,0,0-.717,2.736,2.045,2.045,0,0,0,2.736.717,51.826,51.826,0,0,0,8.69-4.632,9.035,9.035,0,0,0,2.41-2.481,11.006,11.006,0,0,0,1.2-3.323,53.34,53.34,0,0,0,1.177-6.53,2.011,2.011,0,0,0-2-2,2.049,2.049,0,0,0-2,2Z"></path><path class="b" d="M224.439,28.569c.076.055.232.183.072.051.106.088.209.18.31.274.24.224.462.465.678.711a12.049,12.049,0,0,1,1.079,1.53,35.833,35.833,0,0,1,2.288,4.3,24.82,24.82,0,0,1,1.715,10.046c-.058,2.575,3.942,2.574,4,0a28.5,28.5,0,0,0-2.146-11.8c-1.358-3.133-3.141-6.538-5.977-8.568a2.015,2.015,0,0,0-2.736.718,2.042,2.042,0,0,0,.717,2.736Z"></path><path class="b" d="M167.575,45.883a88.759,88.759,0,0,1,.073,12.409,70.653,70.653,0,0,1-1.273,8.1c-.961,5.315-.937,11.271,1.621,16.161a12.992,12.992,0,0,0,7.527,6.3c2.447.819,3.5-3.042,1.063-3.857-4.866-1.63-6.557-6.679-6.754-11.386-.21-5,1.378-9.5,1.763-14.558a87.711,87.711,0,0,0-.02-13.169c-.192-2.551-4.193-2.572-4,0Z"></path><path class="b" d="M192.3,72.217a36.676,36.676,0,0,1-5.9-5.817l-.269-.336c-.027-.034-.378-.486-.111-.138q-.288-.375-.569-.756c-.16-.216-.312-.435-.464-.657a27.783,27.783,0,0,1-1.605-2.546,2.017,2.017,0,0,0-2.736-.717,2.043,2.043,0,0,0-.718,2.736,34.075,34.075,0,0,0,3.536,5.108,36.763,36.763,0,0,0,6.007,5.952,2.053,2.053,0,0,0,2.828,0,2.022,2.022,0,0,0,0-2.829Z"></path><path class="b" d="M225.225,14.552c3.818,4.35,5.79,10.23,6.364,15.924.656,6.5-.317,12.944-.738,19.428-.371,5.7-.434,11.677-3.051,16.9a19.708,19.708,0,0,1-11.924,9.735c-6.234,1.847-12.695.448-18.564-1.964a2.012,2.012,0,0,0-2.46,1.4,2.051,2.051,0,0,0,1.4,2.46c5.98,2.458,12.465,3.731,18.884,2.416a24.307,24.307,0,0,0,14.617-9.5c3.689-5.226,4.471-11.7,4.875-17.911.239-3.682.416-7.378.808-11.049a59.178,59.178,0,0,0,.294-10.249c-.49-7.386-2.721-14.768-7.673-20.411-1.7-1.939-4.522.9-2.829,2.828Z"></path><path class="b" d="M223.253,7.068c-4.792-4.18-10.4-6.153-16.674-6.78A39.355,39.355,0,0,0,190.49,1.544a35.778,35.778,0,0,0-16.515,11.425A31.4,31.4,0,0,0,168.9,21.25a36.611,36.611,0,0,0-2.127,9.014,37.17,37.17,0,0,0,.057,9.749,56.226,56.226,0,0,1,.853,10.467c-.138,2.573,3.863,2.565,4,0,.3-5.594-1.5-11.051-1.228-16.633.268-5.483,1.435-11.022,4.537-15.63A33.093,33.093,0,0,1,189.353,6.205a31.455,31.455,0,0,1,13.69-2.159c6.386.27,12.447,1.547,17.381,5.851,1.933,1.685,4.773-1.133,2.829-2.829Z"></path><path class="b" d="M179.105,45.053a6.817,6.817,0,0,0-7.86.716,7.169,7.169,0,0,0-2.033,5.79c.188,4.6,2.8,9.717,7.055,11.826a9.154,9.154,0,0,0,7.988.2,2,2,0,0,0-2.019-3.454,3.516,3.516,0,0,1-1.107.269c-.3,0-.592.01-.889-.011-.146-.01-.291-.023-.436-.041.176.02.144.011-.1-.027-.489-.113-.96-.238-1.436-.4-.387-.128.271.191-.041-.022-.248-.169-.528-.3-.78-.465a9.181,9.181,0,0,1-2.166-2.161c-.25-.363-.482-.739-.7-1.121-.112-.2-.223-.392-.329-.591-.036-.068-.33-.681-.238-.463a10.976,10.976,0,0,1-.772-3.077,8.98,8.98,0,0,1,.007-1.818c-.035.286.095-.423.115-.5.035-.127.074-.253.118-.377-.109.241-.127.279-.052.114.077-.136.148-.278.226-.414s.327-.338.02-.043c.059-.057.543-.509.2-.24a3.332,3.332,0,0,1,.659-.394c-.152.059-.107.045.136-.044q.232-.075.471-.131c.286-.05.342-.066.166-.045.154-.015.308-.022.463-.022a2.2,2.2,0,0,1,1.319.394c2.2,1.345,4.215-2.113,2.019-3.454Z"></path><path class="b" d="M58.119,146.9a146.587,146.587,0,0,0-3.113,16,13.785,13.785,0,0,0,.108,6.441,9.984,9.984,0,0,0,3.061,4.411c2.94,2.48,6.712,4.054,10.292,5.361a74.813,74.813,0,0,0,10.7,2.7c2.513.517,3.587-3.338,1.064-3.857-6.261-1.288-12.536-2.682-18.015-6.166a8.092,8.092,0,0,1-3.032-3.014c-.771-1.533-.545-3.355-.3-4.992.375-2.459.828-4.907,1.29-7.35.535-2.832,1.055-5.685,1.8-8.472.661-2.491-3.2-3.553-3.858-1.063Z"></path><path class="b" d="M65.469,93.671c-8.021,3.469-16.057,7.28-22.316,13.54a43.933,43.933,0,0,0-8.108,11.125,72.592,72.592,0,0,0-4.788,13.2c-1.282,4.574-2.363,9.2-3.569,13.8a57.106,57.106,0,0,0-1.979,17.273c.516,10.3,4.623,20.749,12.856,27.292,8.039,6.387,18.455,10.459,28.554,12.065a2.063,2.063,0,0,0,2.46-1.4,2.015,2.015,0,0,0-1.4-2.46,62.335,62.335,0,0,1-24.464-9.369c-7.906-5.264-12.618-13.774-13.761-23.153-1.248-10.245,1.749-20.114,4.325-29.913A96.754,96.754,0,0,1,37.44,122.64a39.725,39.725,0,0,1,6.776-10.719c6.236-7.083,14.761-11.116,23.272-14.8a2.014,2.014,0,0,0,.718-2.737,2.052,2.052,0,0,0-2.737-.717Z"></path><path class="b" d="M116.092,97.67a38.591,38.591,0,0,1,11.685,6.28,27.951,27.951,0,0,1,7.384,9.545,47.866,47.866,0,0,1,3.769,13.692,176.51,176.51,0,0,1,1.64,20.088c.259,7.846.195,15.7.137,23.547-.019,2.575,3.981,2.577,4,0,.108-14.454.259-28.982-1.725-43.333-1.318-9.537-4.188-19.12-11.617-25.717a42.919,42.919,0,0,0-14.21-7.959c-2.426-.872-3.472,2.991-1.063,3.857Z"></path><path class="b" d="M120.837,125.662a426.59,426.59,0,0,0-1.476,43.685c.046,2.571,4.046,2.58,4,0a426.59,426.59,0,0,1,1.476-43.685c.218-2.565-3.783-2.551-4,0Z"></path><path class="b" d="M65.637,96.232A41.684,41.684,0,0,0,86.359,105c6.442.863,13.574.509,19.247-2.986a24.069,24.069,0,0,0,7.421-7.559c1.407-2.165-2.055-4.172-3.454-2.019a19.177,19.177,0,0,1-7.2,6.809,22.593,22.593,0,0,1-10.178,2.14A37.7,37.7,0,0,1,68.465,93.4a2.059,2.059,0,0,0-2.828,0,2.015,2.015,0,0,0,0,2.829Z"></path><path class="b" d="M67.856,97.417c2.431-1.173,5.271-2.726,6.544-5.224a19.83,19.83,0,0,0,1.382-4.556c.319-1.388.555-2.792.751-4.2a2.057,2.057,0,0,0-1.4-2.46,2.024,2.024,0,0,0-2.461,1.4c-.178,1.282-.387,2.558-.665,3.822q-.22,1-.485,1.984-.147.552-.3,1.1c-.056.2-.111.393-.17.588-.02.066-.184.5-.026.141a4.551,4.551,0,0,1-1.843,2.043,24.729,24.729,0,0,1-3.347,1.914,2.01,2.01,0,0,0-.718,2.736,2.053,2.053,0,0,0,2.737.718Z"></path><path class="b" d="M103.537,88.772a8.112,8.112,0,0,0,.343,1.679,10.937,10.937,0,0,0,.553,1.312,6.463,6.463,0,0,0,1.431,1.813,12.151,12.151,0,0,0,4.5,2.405,2.015,2.015,0,0,0,2.46-1.4,2.048,2.048,0,0,0-1.4-2.46c-.478-.16-.952-.328-1.416-.523l.477.2a8.411,8.411,0,0,1-1.768-1l.405.313a7,7,0,0,1-1.2-1.191l.313.405a4.459,4.459,0,0,1-.533-.963l.2.478a6.2,6.2,0,0,1-.436-1.509l.072.532-.012-.093a2.2,2.2,0,0,0-.586-1.414,2,2,0,0,0-2.828,0,1.917,1.917,0,0,0-.586,1.414Z"></path><path class="b" d="M77.826,82.618c-.166-.124-.333-.249-.5-.376.24.186-.243-.2-.238-.191q-.427-.343-.845-.7-.843-.717-1.643-1.484a40.192,40.192,0,0,1-2.881-3.084c-.426-.505-.845-1.016-1.247-1.541.2.256.045.057,0,0-.1-.137-.2-.272-.3-.409a29.57,29.57,0,0,1-1.73-2.611A2,2,0,1,0,65,74.242a36.315,36.315,0,0,0,3.895,5.371,41.213,41.213,0,0,0,6.915,6.459,2.006,2.006,0,0,0,2.736-.718,2.058,2.058,0,0,0-.718-2.736Z"></path><path class="b" d="M112.313,20.952c3.605,3.91,5.521,8.966,6.519,14.126a49.642,49.642,0,0,1,.3,16.477,2.066,2.066,0,0,0,1.4,2.46,2.015,2.015,0,0,0,2.46-1.4c1.732-11.611.45-25.493-7.849-34.494-1.749-1.9-4.572.937-2.829,2.828Z"></path><path class="b" d="M57.111,58.387a26.14,26.14,0,0,1-2.473-8.248,37.889,37.889,0,0,1-.7-7.526c.147-5.932,1.243-11.957,4.512-17A35.776,35.776,0,0,1,73.327,12.545,32.441,32.441,0,0,1,87.678,9.831c7.094.145,14.016,1.64,19.582,6.279,1.964,1.637,4.809-1.178,2.828-2.828C104.629,8.731,98.184,6.565,91.153,6a39.629,39.629,0,0,0-17.19,1.982,39.079,39.079,0,0,0-17.3,13.254c-4.156,5.488-6,11.74-6.565,18.543a42.166,42.166,0,0,0,.462,10.087c.558,3.591,1.3,7.336,3.1,10.539,1.257,2.247,4.714.233,3.454-2.018Z"></path><path class="b" d="M82.631,89.184c8.4,3.228,17.889,4.2,26.1-.128a25.305,25.305,0,0,0,9.539-8.556,30.2,30.2,0,0,0,4.06-12.582c.711-5.749.569-11.61.961-17.387.175-2.57-3.826-2.559-4,0-.328,4.839-.391,9.691-.7,14.531A30.182,30.182,0,0,1,115.9,76.551c-3.388,6.832-10.81,11.125-18.327,11.435a34.566,34.566,0,0,1-13.878-2.66,2.017,2.017,0,0,0-2.46,1.4,2.046,2.046,0,0,0,1.4,2.461Z"></path><path class="b" d="M63.537,54.351a7.141,7.141,0,0,0-8.2.879,7.422,7.422,0,0,0-2.023,6.017c.275,4.862,3.109,10.219,7.643,12.39a9.625,9.625,0,0,0,8.44.091c2.268-1.221.25-4.676-2.019-3.454a3.882,3.882,0,0,1-1.23.357,7.125,7.125,0,0,1-.947.01q-.233-.011-.465-.033-.386-.039-.142-.017a9.955,9.955,0,0,1-1.539-.385c-.1-.035-.2-.073-.3-.113.257.111.294.122.11.035a6.144,6.144,0,0,0-.732-.421,10.744,10.744,0,0,1-3.941-4.8,12.555,12.555,0,0,1-.841-3.181,9.59,9.59,0,0,1-.022-1.879,1.97,1.97,0,0,1,.1-.537c.019-.073.265-.833.121-.44-.133.359.065-.122.1-.191.056-.1.418-.564.1-.2A4.337,4.337,0,0,1,58.232,58c-.268.223.354-.2.432-.241a3,3,0,0,1,2.854.048c2.232,1.293,4.248-2.163,2.019-3.454Z"></path><path class="b" d="M122.9,49.718a18.039,18.039,0,0,0-3.371-8.877,14.473,14.473,0,0,0-6.246-5.4,2.007,2.007,0,0,0-2.46,1.4,2.057,2.057,0,0,0,1.4,2.46c.387.151-.425-.221-.043-.015.092.05.187.094.279.144.2.106.386.222.571.344.1.065.195.131.291.2.076.054.433.367.066.044.195.171.4.331.592.506a15.6,15.6,0,0,1,1.234,1.259c.2.223.385.452.572.683.136.169-.138-.194.076.1.108.15.218.3.324.45q.542.775,1,1.6.258.46.49.935.1.216.206.435c-.006-.012.2.481.128.291s.1.257.113.3q.1.269.192.542c.1.3.193.607.273.915s.151.613.209.924c.006.033.106.641.045.21.026.184.041.37.057.556a2,2,0,0,0,4,0Z"></path><path class="b" d="M76.664,200.5a15.951,15.951,0,0,1,.5-6.947,20.844,20.844,0,0,1,1.983-5.712c1.836-3.141,5.372-4.274,8.732-4.718,3.142-.415,6.31-.71,9.473-.9a16.627,16.627,0,0,1,8.339,1.268c3.637,1.681,8.159,5.431,8.023,9.836-.08,2.575,3.921,2.572,4,0,.154-4.989-3.75-9.395-7.681-11.989a19.158,19.158,0,0,0-11.174-3.192c-3.621.136-7.251.5-10.844.963-4.315.552-8.558,1.755-11.373,5.345a19.328,19.328,0,0,0-3.168,7.362,21.638,21.638,0,0,0-.669,9.75c.518,2.52,4.375,1.453,3.858-1.063Z"></path><path class="b" d="M100.585,191.068a20.984,20.984,0,0,1,3.553.887c.235.083.469.17.7.263.2.077.293.128.042.015.119.053.239.106.357.161.449.209.889.438,1.315.689.371.219.732.453,1.08.707.053.038.375.214.1.074s.021.021.088.076c.152.126.3.257.445.392a11.581,11.581,0,0,1,.975,1.043c.075.091.15.183.224.275.36.44-.119-.174.071.088s.362.494.534.749a2,2,0,0,0,3.454-2.019,15.514,15.514,0,0,0-4.833-4.766,19.917,19.917,0,0,0-7.045-2.491,2.049,2.049,0,0,0-2.46,1.4,2.024,2.024,0,0,0,1.4,2.46Z"></path><path class="b" d="M100.824,198.577c.146.01.29.025.434.044l-.532-.071a9.106,9.106,0,0,1,1.789.493c.211.077-.5-.221-.151-.065l.187.085q.235.11.465.23.466.246.909.535.2.13.394.27a2.35,2.35,0,0,1,.214.157c-.092-.085-.363-.286-.113-.084s.507.431.744.666q.183.182.356.373c.041.046.271.385.328.388-.025,0-.293-.4-.13-.167.047.068.1.134.142.2q.15.221.283.453a2,2,0,0,0,3.454-2.019,11.307,11.307,0,0,0-3.832-3.809,10.773,10.773,0,0,0-4.941-1.682,2.01,2.01,0,0,0-2,2,2.049,2.049,0,0,0,2,2Z"></path><path class="b" d="M98.079,205.167a5.7,5.7,0,0,1,1.29.382l-.477-.2a6.888,6.888,0,0,1,1.44.844l-.4-.313a6.412,6.412,0,0,1,1.14,1.135l-.313-.405a5.909,5.909,0,0,1,.692,1.169,2,2,0,0,0,1.2.92,2.047,2.047,0,0,0,1.541-.2,2.017,2.017,0,0,0,.919-1.195l.072-.532a1.987,1.987,0,0,0-.273-1.009,7.94,7.94,0,0,0-2.749-3.17,8.638,8.638,0,0,0-1.718-.9,5.754,5.754,0,0,0-1.291-.382,2.177,2.177,0,0,0-1.541.2,2,2,0,0,0-.717,2.736,1.937,1.937,0,0,0,1.195.919Z"></path><path class="b" d="M76.893,204.754c2.3,4.522,8.714,5.588,13.285,5.582a23.483,23.483,0,0,1,3.685.1c1.158.183,1.953,1.057,2.882,1.7,2.235,1.558,5.834,1.545,7.209-1.154,1.166-2.289-2.283-4.316-3.454-2.019-.1.195-.229.24-.047.164a.627.627,0,0,1-.38.089,2.272,2.272,0,0,1-1.038-.35c-.812-.5-1.491-1.2-2.33-1.662-1.943-1.071-4.382-.881-6.527-.878a20.185,20.185,0,0,1-5.75-.826c-1.672-.481-3.258-1.157-4.081-2.775-1.167-2.3-4.619-.273-3.454,2.019Z"></path><path class="b" d="M103.953,34.253A92.41,92.41,0,0,0,94.611,38.2c-1.437.674-2.868,1.362-4.3,2.041-.391.184-1.422.445-1.679.783l-.128.059q.678-.2.8.42l.184.359.072-.532a6.216,6.216,0,0,0-.005-1.235c-.171-1.739-1.022-3.5-2.944-3.721-1.658-.194-3.563,1.125-4.942,1.925a65.008,65.008,0,0,0-9.223,6.713c-1.571,1.328-3.346,2.607-4.143,4.57a29.7,29.7,0,0,0-1.432,5.605c-.477,2.515,3.377,3.593,3.858,1.063.2-1.062.425-2.117.694-3.164a7.193,7.193,0,0,1,.9-2.6,15.938,15.938,0,0,1,2.3-2.086q1.325-1.139,2.688-2.229a55.039,55.039,0,0,1,5.661-3.989c.928-.565,1.878-1.1,2.858-1.567q.348-.168.7-.325A1.126,1.126,0,0,1,85.522,40a7.627,7.627,0,0,0,.066,1.053,3.5,3.5,0,0,0,.7,2.846,3.277,3.277,0,0,0,2.675,1.112c1.679-.1,3.6-1.433,5.1-2.146a103.564,103.564,0,0,1,10.957-4.759c2.422-.826,1.382-4.691-1.064-3.857Z"></path><path class="b" d="M202.053,30.033a50.328,50.328,0,0,1-9.78,8.317c-1.894,1.284-3.831,2.5-5.765,3.724a9.242,9.242,0,0,0-3.563,4.121,2.068,2.068,0,0,0,.717,2.737,2.015,2.015,0,0,0,2.737-.718,6.447,6.447,0,0,1,1.327-2.045c.144-.146.3-.277.447-.418.177-.166.116-.073-.035.024.416-.267.837-.529,1.256-.793,1.923-1.211,3.837-2.437,5.7-3.732a52.616,52.616,0,0,0,9.782-8.389,2.048,2.048,0,0,0,0-2.828,2.018,2.018,0,0,0-2.828,0Z"></path><path class="b" d="M223.747,25.429a40.6,40.6,0,0,1-12.579,8.388,36.132,36.132,0,0,1-6.329,2.219,9.832,9.832,0,0,1-2.24.283,3.484,3.484,0,0,1-.835-.071c-.17-.042-.429-.226-.351-.108C200,34,196.535,36,197.959,38.159c2.752,4.167,9.444,1.457,13,.048a45.418,45.418,0,0,0,15.619-9.949c1.817-1.828-1.01-4.657-2.828-2.829Z"></path><path class="b" d="M176.793,128.427c-.009,5.16.082,10.322.218,15.48a164.6,164.6,0,0,0,1.038,17.607,2.011,2.011,0,0,0,2.46,1.4,2.054,2.054,0,0,0,1.4-2.46c.062.462-.037-.334-.046-.412-.031-.279-.06-.56-.088-.84q-.091-.941-.162-1.883c-.105-1.372-.186-2.746-.256-4.12-.164-3.2-.269-6.406-.352-9.61-.129-5.051-.218-10.106-.209-15.159,0-2.574-4-2.578-4,0Z"></path><path class="b" d="M234.244,112.426c.509,6.827,1.656,13.636,1.184,20.5a65.03,65.03,0,0,1-1.736,10.954,35.331,35.331,0,0,0-1.074,5.259,31.59,31.59,0,0,0,.116,4.968c.174,2.554,4.175,2.574,4,0a33.025,33.025,0,0,1-.131-4.779,36.375,36.375,0,0,1,1.159-5.28,71.613,71.613,0,0,0,1.666-11.122c.472-6.863-.675-13.672-1.184-20.5-.19-2.551-4.191-2.572-4,0Z"></path><path class="b" d="M228.851,68.613a27.217,27.217,0,0,1,.293,6.179c.042-.415-.02.128-.036.216q-.065.372-.155.74a11.839,11.839,0,0,1-.4,1.258c.134-.364-.087.179-.1.208-.11.223-.231.442-.362.654-.1.159-.2.314-.31.465.22-.306-.234.259-.285.314a2,2,0,0,0,2.829,2.829,10.81,10.81,0,0,0,2.7-5.778,25.645,25.645,0,0,0-.174-7.085,2.054,2.054,0,0,0-2-2c-.971.044-2.141.889-2,2Z"></path><path class="b" d="M214.636,64.267c-.116.065-.236.123-.354.184-.237.123.139-.061.19-.076-.085.025-.169.065-.253.095a7.833,7.833,0,0,1-.873.252q-.26.06-.522.105c-.079.013-.16.02-.237.037.076-.016.451-.051.172-.026-.342.032-.682.057-1.026.059a8.992,8.992,0,0,1-.943-.044c-.452-.046.41.072-.028-.007-.159-.029-.318-.063-.475-.105-.14-.037-.279-.08-.415-.129-.08-.029-.16-.073-.241-.094.109.029.345.153.106.04-.5-.236-1-.453-1.509-.665a2,2,0,0,0-1.542.2,2,2,0,0,0-.717,2.736,2.371,2.371,0,0,0,1.195.92c-.215-.09-.263-.113-.022,0l.258.119c.188.087.377.174.567.256a8.6,8.6,0,0,0,1.36.5,9.985,9.985,0,0,0,2.526.271,10.235,10.235,0,0,0,4.8-1.174,2,2,0,0,0-2.019-3.454Z"></path><path class="b" d="M198.457,48.439c-.34,1.44.157,4.667,2.849,4.766,3.532-.255,3.461-4.192,2.149-5.959C202.381,45.8,199.476,45.361,198.457,48.439Z"></path><path class="b" d="M219.678,46.4c-.311,1.425.156,4.621,2.64,4.726,3.258-.245,3.182-4.143,1.968-5.9C223.292,43.8,220.611,43.359,219.678,46.4Z"></path><path class="b" d="M211.963,55.484q.39.6.758,1.219a13.59,13.59,0,0,1,.753,1.356l-.2-.478a1.492,1.492,0,0,1,.1.334l-.072-.531a.855.855,0,0,1,0,.16l.071-.532a.417.417,0,0,1-.024.1l.2-.477a.4.4,0,0,1-.048.092l.313-.4a1.725,1.725,0,0,1-.284.276l.405-.313a1.517,1.517,0,0,1-.281.164l.478-.2a1.775,1.775,0,0,1-.419.105l.532-.072c-.262.034-.526.059-.786.108a2.014,2.014,0,0,0-1.195.919,2,2,0,0,0,.717,2.736l.478.2a2.018,2.018,0,0,0,1.063,0c.035-.007.07-.012.105-.017l-.531.071a5.091,5.091,0,0,0,1.055-.177,3.513,3.513,0,0,0,1.406-.875,2.5,2.5,0,0,0,.655-1.1,2.694,2.694,0,0,0,.017-1.3,4.05,4.05,0,0,0-.461-1.127c-.41-.775-.873-1.524-1.35-2.26a2.112,2.112,0,0,0-1.195-.919,2.043,2.043,0,0,0-1.541.2,2,2,0,0,0-.718,2.736Z"></path><path class="b" d="M101.47,73.886c-.123.072-.246.142-.373.2a1.148,1.148,0,0,0-.2.1c.309-.242.308-.125.107-.048a8.495,8.495,0,0,1-.922.29c-.35.089-.709.129-1.059.21.092-.021.424-.048.148-.023l-.257.025c-.192.016-.385.026-.578.032a9.342,9.342,0,0,1-1-.023c-.081-.007-.162-.018-.243-.023-.262-.017.43.074.176.025-.169-.033-.339-.059-.508-.1-.15-.036-.3-.078-.445-.127s-.392-.211-.525-.2l.207.086-.206-.089-.277-.12c-.321-.137-.642-.274-.968-.4a2.008,2.008,0,0,0-2.46,1.4,2.058,2.058,0,0,0,1.4,2.46c.056.022.453.189.181.07l.108.048c.318.137.635.275.955.406a6.618,6.618,0,0,0,1.08.353,10.518,10.518,0,0,0,2.66.234,10.79,10.79,0,0,0,5.024-1.328,2,2,0,1,0-2.018-3.454Z"></path><path class="b" d="M84.24,57.254c-.363,1.534.168,4.971,3.034,5.076,3.762-.271,3.685-4.464,2.289-6.346C88.419,54.444,85.325,53.977,84.24,57.254Z"></path><path class="b" d="M106.837,55.1c-.329,1.487.164,4.823,2.794,4.931,3.45-.256,3.371-4.324,2.086-6.152C110.665,52.385,107.826,51.926,106.837,55.1Z"></path><path class="b" d="M98.709,64.4c.293.429.576.864.853,1.3a11.716,11.716,0,0,1,.845,1.459l-.2-.478a1.448,1.448,0,0,1,.087.3l-.071-.532a.966.966,0,0,1,.005.17l.071-.531a.621.621,0,0,1-.045.158l.2-.478a.468.468,0,0,1-.063.1l.312-.405a2.39,2.39,0,0,1-.26.253l.405-.312a1.564,1.564,0,0,1-.341.2l.477-.2a4.08,4.08,0,0,1-.666.147,2,2,0,0,0-.477,3.656,2.189,2.189,0,0,0,1.541.2,5.275,5.275,0,0,0,.573-.113,3.631,3.631,0,0,0,1.419-.839,2.54,2.54,0,0,0,.847-2,3.916,3.916,0,0,0-.544-1.657c-.463-.827-.981-1.626-1.515-2.409a2.132,2.132,0,0,0-1.195-.919,2.042,2.042,0,0,0-1.541.2,2.021,2.021,0,0,0-.919,1.2,1.994,1.994,0,0,0,.2,1.541Z"></path><path class="b" d="M181.588,87.956a43.4,43.4,0,0,0,23.133,6.074c7.207-.142,14.592-1.977,19.214-7.921a2.064,2.064,0,0,0,0-2.828,2.011,2.011,0,0,0-2.828,0c-4.089,5.257-10.374,6.679-16.744,6.755A39.344,39.344,0,0,1,183.607,84.5c-2.216-1.322-4.23,2.135-2.019,3.454Z"></path><path class="b" d="M160.234,168.706c-.416-6.666-.621-13.345-.782-20.021-.139-5.736-.338-11.479-.025-17.212a126.318,126.318,0,0,1,2.03-17.54,34.475,34.475,0,0,1,5.774-13.842c3.678-5.03,9.089-8.593,14.183-12.028,2.122-1.432.123-4.9-2.019-3.454-4.92,3.318-10.011,6.726-13.894,11.275a35.448,35.448,0,0,0-7.339,14.431c-2.834,11.454-3.03,23.5-2.782,35.226.164,7.724.373,15.453.854,23.165.16,2.557,4.161,2.575,4,0Z"></path><path class="b" d="M224.029,86.869a33.153,33.153,0,0,1,10.113,4.989,26.705,26.705,0,0,1,7.93,11.028c3.947,9.476,5.055,19.862,6.934,29.868,1.135,6.047,2.389,12.07,3.54,18.114.48,2.525,4.336,1.456,3.857-1.064-1.051-5.518-2.189-11.018-3.242-16.536-1.04-5.457-1.863-10.955-2.955-16.4-1.945-9.69-4.754-20.613-12.587-27.3a36.585,36.585,0,0,0-12.527-6.552c-2.448-.812-3.5,3.049-1.063,3.857Z"></path><path class="b" d="M213.91,80.656a3.97,3.97,0,0,0,1.224,2.388,19.743,19.743,0,0,0,1.949,1.535A18.266,18.266,0,0,0,221,86.623a2.013,2.013,0,0,0,1.541-.2,2,2,0,0,0,.718-2.737,2.3,2.3,0,0,0-1.2-.919q-.227-.089-.452-.182l.478.2a16.6,16.6,0,0,1-3.6-2.111l.405.312a7.042,7.042,0,0,1-1.25-1.112l.313.405a2.213,2.213,0,0,1-.193-.329l.2.478a3.736,3.736,0,0,1-.2-.835,2,2,0,0,0-.919-1.2,2,2,0,0,0-2.737.717l-.2.478a2,2,0,0,0,0,1.063Z"></path><path class="b" d="M23.632,139.937a17.576,17.576,0,0,0-9.926,7.774,18.315,18.315,0,0,0-1.935,12.252q1.87,12.477,3.678,24.964.8,5.462,1.607,10.921a2.012,2.012,0,0,0,2.46,1.4,2.051,2.051,0,0,0,1.4-2.46q-1.523-10.231-3.006-20.469-.874-5.957-1.756-11.913c-.526-3.541-1.2-6.951-.016-10.445a13.193,13.193,0,0,1,8.561-8.163c2.439-.788,1.4-4.651-1.064-3.857Z"></path><path class="b" d="M427.239,143.414c8.681,2.514,14.561,10.575,17.974,18.533,4.322,10.081,3.975,20.836,3.7,31.568-.157,6.111-1.082,12.153-1.768,18.218a2.012,2.012,0,0,0,2,2,2.047,2.047,0,0,0,2-2c1.319-11.665,2.729-23.43,1.669-35.188-.912-10.1-4.449-20.006-11.027-27.826a28.1,28.1,0,0,0-13.483-9.162c-2.478-.718-3.535,3.141-1.064,3.857Z"></path><path class="b" d="M429.5,140.476c-.554-1.239-1.224-3.122-1.8-4.644-.748-1.991-1.5-3.981-2.367-5.926a10.344,10.344,0,0,0-3.167-4.535c-2.157-1.486-5.64-.908-8.1-.738-10.435.722-21.587,3.483-30.146,9.735a31.986,31.986,0,0,0-10.53,12.216,2.061,2.061,0,0,0,.718,2.737,2.016,2.016,0,0,0,2.736-.718c3.519-7.691,11.063-13.222,18.875-16.037a69.67,69.67,0,0,1,15.312-3.648,39.93,39.93,0,0,1,8.127-.415c1.45.134,2.071,1.976,2.608,3.161,1.6,3.538,2.693,7.286,4.279,10.831a2.014,2.014,0,0,0,2.736.717,2.048,2.048,0,0,0,.718-2.736Z"></path><path class="b" d="M415.91,138.8a100.841,100.841,0,0,0-26.475,3.911,123.707,123.707,0,0,0-24.254,9.6A47.874,47.874,0,0,0,347.72,167.4c-4.573,6.738-6.707,14.725-8.122,22.649-.8,4.465-1.4,8.962-2.194,13.428-.389,2.195-.884,4.367-1.309,6.555a31.212,31.212,0,0,1-1.928,7.1,2.059,2.059,0,0,0,.718,2.736,2.016,2.016,0,0,0,2.736-.717c1.727-3.779,2.348-7.946,3.15-12,.761-3.838,1.324-7.711,1.937-11.574,1.2-7.587,2.573-15.372,6.143-22.259a40.6,40.6,0,0,1,15.608-16.022,107.776,107.776,0,0,1,22.8-9.766A98.537,98.537,0,0,1,415.91,142.8c2.573-.026,2.579-4.026,0-4Z"></path><path class="b" d="M337.584,220.142c-5.917-5.138-11.3-10.782-16.678-16.474-2.517-2.665-5.433-7.078-9.695-5.557-3.16,1.127-6.116,3.686-8.576,5.893a55.311,55.311,0,0,0-11.7,14.571,20.033,20.033,0,0,0-1.353,2.949c-.621,1.807.269,3.058,1.2,4.541q2.949,4.693,6.108,9.249c7.923,11.492,16.453,23.218,29.03,29.969,6.614,3.551,14.1,5.472,21.606,4.451,7.334-1,13.973-5.592,18.212-11.554,4.183-5.882,6.079-13.41,8.016-20.259a178.174,178.174,0,0,0,5.289-25.277q.406-3.1.666-6.215c.214-2.566-3.787-2.551-4,0a152.39,152.39,0,0,1-3.946,23.331c-1.694,6.967-3.537,14.152-6.36,20.762a25.914,25.914,0,0,1-12.513,13.443c-6.194,3.029-13.468,2.443-19.808.177-12.276-4.388-20.992-14.569-28.441-24.783q-3.087-4.233-6.014-8.58-1.392-2.066-2.746-4.155-.678-1.047-1.345-2.1-.3-.474-.6-.949c-.109-.174-.633-1.014-.6-.8.041.232.094-.183.156-.348.124-.331-.062.121.092-.225.194-.436.406-.863.627-1.285.538-1.027,1.136-2.022,1.765-3a55.147,55.147,0,0,1,5.185-6.768,47.859,47.859,0,0,1,6.878-6.463,31.974,31.974,0,0,1,3.9-2.521c1.642-.892,2.465.476,3.548,1.61,4.909,5.141,9.692,10.407,14.888,15.264q2.148,2.007,4.372,3.931c1.935,1.68,4.776-1.137,2.828-2.829Z"></path><path class="b" d="M280.538,187.751a12.221,12.221,0,0,0-3.065-3.551c-1.475-1.366-3.05-2.616-4.518-3.988-.893-.834-3.031-2.246-2.568-3.666.491-1.507,2.168-1.122,3.309-.69,7.267,2.747,13.947,6.9,21.087,9.949a10.179,10.179,0,0,1,4.572,3.2,9.3,9.3,0,0,1,1.963,5.852c-.071,2.575,3.929,2.573,4,0a13.427,13.427,0,0,0-6.518-11.624c-1.716-.962-3.671-1.6-5.453-2.447-2.132-1.009-4.243-2.064-6.356-3.113-2.191-1.087-4.382-2.173-6.6-3.21a46.129,46.129,0,0,0-6.226-2.67,6.2,6.2,0,0,0-6.2,1.234,5.541,5.541,0,0,0-.863,6.77,27.127,27.127,0,0,0,5.037,5.022c1.142.973,2.278,1.957,3.349,3.01a6.77,6.77,0,0,1,1.6,1.941,2.013,2.013,0,0,0,2.736.717,2.05,2.05,0,0,0,.718-2.736Z"></path><path class="b" d="M278.183,188.51q-10.773,1.1-21.559,2.044c-3.835.344-7.683.7-11.483,1.34-3.209.539-6.234,1.53-7.295,4.976-1.111,3.609,1.249,6.65,4.86,7.136a2.068,2.068,0,0,0,2.46-1.4,2.014,2.014,0,0,0-1.4-2.461,4.3,4.3,0,0,1-1.713-.457,1.157,1.157,0,0,1-.365-.319c.021.025-.057-.157-.065-.179a2.318,2.318,0,0,1,.31-1.791,3.76,3.76,0,0,1,2.717-1.367c1.258-.254,2.529-.455,3.8-.625,6.145-.821,12.351-1.216,18.522-1.8q5.606-.528,11.206-1.105a2.056,2.056,0,0,0,2-2,2.014,2.014,0,0,0-2-2Z"></path><path class="b" d="M266.364,198.214c-4.495.127-8.985.348-13.463.765-2.129.2-4.259.42-6.38.69a8.635,8.635,0,0,0-5.479,2.361c-2.6,2.855-1.15,7.028,2.211,8.409a11.771,11.771,0,0,0,5.7.493c1.881-.174,3.763-.33,5.646-.479,4.1-.325,8.2-.63,12.3-.84,2.562-.131,2.577-4.132,0-4-6.248.32-12.49.822-18.72,1.392-1.227.112-2.849.268-3.922-.508a1.145,1.145,0,0,1-.308-1.734c.836-1.027,2.632-1.1,3.822-1.242,1.837-.214,3.676-.41,5.518-.577,4.35-.4,8.711-.607,13.077-.73,2.568-.072,2.579-4.073,0-4Z"></path><path class="b" d="M249.776,206.962c-2.379.944-4.327,3.483-3.441,6.139a5.34,5.34,0,0,0,5.041,3.518c3.142.173,6.32.048,9.464,0,1.709-.027,3.419-.057,5.127-.116,2.567-.089,2.579-4.09,0-4-3.53.123-7.067.16-10.6.167-1.362,0-2.721-.031-4.082-.055-.076,0-.154-.008-.23-.016.6.057-.308-.091-.278-.078a1.059,1.059,0,0,1-.6-.545.43.43,0,0,1,.02-.443,1.859,1.859,0,0,1,.645-.713,2.06,2.06,0,0,0,1.4-2.46,2.013,2.013,0,0,0-2.46-1.4Z"></path><path class="b" d="M258.505,218.579c5.2.061,10.408.225,15.613.294,1.955.026,3.911.072,5.862.205a17.191,17.191,0,0,1,5.049.833,2.014,2.014,0,0,0,2.46-1.4,2.046,2.046,0,0,0-1.4-2.46,19.483,19.483,0,0,0-5.483-.93c-2.073-.163-4.155-.217-6.234-.247-5.291-.076-10.579-.235-15.87-.3-2.575-.031-2.576,3.969,0,4Z"></path><path class="a" d="M475.73,255.149c0-14.748.393-18.438.535-43.736a10,10,0,0,0-12.788-9.669c-16.456,4.783-40.278,11.735-56.639,16.455a12.923,12.923,0,0,0-9.337,12.366c-.107,24.858-.385,34.882-.385,57.251Z"></path><path class="b" d="M399.116,287.816c0-12.842.141-25.682.258-38.524q.048-5.3.083-10.6.02-2.971.034-5.941a18.765,18.765,0,0,1,.426-5.134,10.963,10.963,0,0,1,5.169-6.539A18.819,18.819,0,0,1,409.2,219.6l4.75-1.373q20.8-6.022,41.59-12.091c3.066-.892,6.186-2.075,9.324-2.671a8.03,8.03,0,0,1,7.214,2.393c2.358,2.462,2.185,5.5,2.163,8.686q-.036,5.313-.1,10.627c-.111,8.806-.363,17.611-.4,26.418q-.007,1.782-.008,3.562c0,2.574,4,2.578,4,0,0-9.063.244-18.121.375-27.183q.075-5.15.116-10.3c.032-3.75.527-7.738-1.029-11.258a12.1,12.1,0,0,0-6.754-6.3c-3.3-1.27-6.422-.6-9.688.35q-21.512,6.256-43.024,12.513-4.962,1.44-9.925,2.873c-3.23.933-6.179,2.21-8.459,4.782a15.2,15.2,0,0,0-3.818,9.223c-.236,4.057-.06,8.175-.09,12.24-.1,13.256-.28,26.512-.311,39.769q-.006,2.98-.007,5.963c0,2.574,4,2.578,4,0Z"></path></g></svg>